<svg width="58" height="84" xmlns="http://www.w3.org/2000/svg" xmlns:xlink="http://www.w3.org/1999/xlink" overflow="hidden"><defs><clipPath id="clip0"><rect x="14" y="-2" width="58" height="84"/></clipPath></defs><g clip-path="url(#clip0)" transform="translate(-14 2)"><path d="M76.8166 38.8398 12.2561 38.8398 19.9378 31.1582C20.9735 30.1225 20.9735 28.4825 19.9378 27.5331 18.9021 26.4974 17.2622 26.4974 16.3127 27.5331L4.22923 39.6166C3.1935 40.6524 3.1935 42.2923 4.22923 43.2417L16.3127 55.3252C16.8306 55.8431 17.5211 56.102 18.1253 56.102 18.7294 56.102 19.4199 55.8431 19.9378 55.3252 20.9735 54.2895 20.9735 52.6496 19.9378 51.7001L12.2561 44.0185 76.8166 44.0185C78.2839 44.0185 79.4059 42.8964 79.4059 41.4292 79.4059 39.9619 78.2839 38.8398 76.8166 38.8398Z" stroke="#FFFFFF" stroke-width="5.17869" fill="#FFFFFF" transform="matrix(1 0 0 1.01378 14 -2)"/></g></svg>